<svg width="12" height="12" viewBox="0 0 12 12" fill="none" xmlns="http://www.w3.org/2000/svg" data-v-7fe71e54="" class=""><path fill-rule="evenodd" clip-rule="evenodd" d="M5.99988 0.5C9.03745 0.5 11.4999 2.96243 11.4999 6C11.4999 9.03757 9.03745 11.5 5.99988 11.5C2.96231 11.5 0.499878 9.03757 0.499878 6C0.499878 2.96243 2.96231 0.5 5.99988 0.5ZM6.24997 8.00014C6.38804 8.00014 6.49997 8.11207 6.49997 8.25014V8.75014C6.49997 8.88821 6.38804 9.00014 6.24997 9.00014H5.74997C5.61189 9.00014 5.49997 8.88821 5.49997 8.75014V8.25014C5.49997 8.11207 5.61189 8.00014 5.74997 8.00014H6.24997ZM5.92896 3C6.52331 3 7.01706 3.14393 7.41023 3.4318C7.80339 3.71966 7.99997 4.14612 7.99997 4.71119C7.99997 5.0577 7.9145 5.34956 7.74356 5.58678C7.64362 5.73072 7.45165 5.91463 7.16762 6.13852L6.88754 6.35842C6.73501 6.47836 6.63376 6.6183 6.5838 6.77822C6.5702 6.82187 6.55825 6.903 6.54794 7.02162C6.53673 7.15083 6.42857 7.25 6.29888 7.25H5.73918C5.60111 7.25 5.48918 7.13807 5.48918 7L5.48944 6.98847L5.49024 6.97697C5.52243 6.62902 5.55691 6.40884 5.59366 6.31644C5.66203 6.14452 5.83823 5.94661 6.12226 5.72272L6.41023 5.49483C6.5049 5.42286 6.99275 5.07932 6.99275 4.77516C6.99275 4.471 6.93977 4.35913 6.78705 4.1922C6.63434 4.02527 6.29057 3.97154 5.98024 3.97154C5.67518 3.97154 5.41449 4.05256 5.28695 4.25779C5.22787 4.35285 5.17956 4.45426 5.14472 4.55772C5.13102 4.59843 5.11887 4.64964 5.10829 4.71135C5.08771 4.83136 4.98365 4.9191 4.86189 4.9191H4.2733C4.13523 4.9191 4.0233 4.80717 4.0233 4.6691L4.0237 4.65495L4.0249 4.64086C4.03125 4.58497 4.03776 4.53848 4.04442 4.50138C4.14189 3.95859 4.38874 3.55942 4.78498 3.30386C5.0953 3.10128 5.47663 3 5.92896 3Z" fill="#E8F3FF" data-v-7fe71e54=""></path></svg>